
<svg xmlns="http://www.w3.org/2000/svg" viewBox="0 0 898 512" width="898" height="512">
  <defs>
    <clipPath id="a">
      <path transform="translate(1022 1864)" fill="#fff" stroke="#707070" d="M0 0h898v512H0z" />
    </clipPath>
    <clipPath id="b">
      <path class="b" d="M1018.307 669.156 479.343 980.375a21.273 21.273 0 0 1-31.92-18.442V751.719a21.257 21.257 0 0 1 10.65-18.424l538.919-311.2a21.261 21.261 0 0 1 31.92 18.425v210.17a21.3 21.3 0 0 1-10.605 18.466Z" transform="translate(-447.423 -419.225)" />
    </clipPath>
    <style>.b,.e{fill:none}.e{stroke:#9f9cf9;stroke-linecap:round;stroke-miterlimit:10}</style>
  </defs>
  <g transform="translate(-1022 -1864)" clip-path="url(#a)">
    <g clip-path="url(#b)" transform="translate(1348.04 1871.377)">
      <path class="b" d="M-15.371 546.813h27.259v27.259h-27.259z" />
      <path class="e" d="M-1.741 563.85v-6.815M-5.149 560.443h6.815" />
      <path class="b" d="M-15.371 519.553h27.259v27.259h-27.259z" />
      <path class="e" d="M-1.741 536.59v-6.815M-5.149 533.183h6.815" />
      <path class="b" d="M-15.371 492.294h27.259v27.259h-27.259z" />
      <path class="e" d="M-1.741 509.331v-6.815M-5.149 505.924h6.815" />
      <path class="b" d="M-15.371 465.034h27.259v27.259h-27.259z" />
      <path class="e" d="M-1.741 482.071v-6.815M-5.149 478.664h6.815" />
      <path class="b" d="M-15.371 437.775h27.259v27.259h-27.259z" />
      <path class="e" d="M-1.741 454.812v-6.815M-5.149 451.405h6.815" />
      <path class="b" d="M-15.371 410.515h27.259v27.259h-27.259z" />
      <path class="e" d="M-1.741 427.552v-6.815M-5.149 424.145h6.815" />
      <path class="b" d="M-15.371 383.256h27.259v27.259h-27.259z" />
      <path class="e" d="M-1.741 400.293v-6.815M-5.149 396.886h6.815" />
      <path class="b" d="M-15.371 355.997h27.259v27.259h-27.259z" />
      <path class="e" d="M-1.741 373.034v-6.815M-5.149 369.627h6.815" />
      <path class="b" d="M-15.371 328.737h27.259v27.259h-27.259z" />
      <path class="e" d="M-1.741 345.774v-6.815M-5.149 342.367h6.815" />
      <path class="b" d="M-15.371 301.478h27.259v27.259h-27.259z" />
      <path class="e" d="M-1.741 318.515V311.7M-5.149 315.108h6.815" />
      <path class="b" d="M-15.371 274.218h27.259v27.259h-27.259z" />
      <path class="e" d="M-1.741 291.255v-6.815M-5.149 287.848h6.815" />
      <path class="b" d="M-15.371 246.959h27.259v27.259h-27.259z" />
      <path class="e" d="M-1.741 263.996v-6.815M-5.149 260.589h6.815" />
      <path class="b" d="M-15.371 219.699h27.259v27.259h-27.259z" />
      <path class="e" d="M-1.741 236.736v-6.815M-5.149 233.329h6.815" />
      <path class="b" d="M-15.371 192.44h27.259v27.259h-27.259z" />
      <path class="e" d="M-1.741 209.477v-6.815M-5.149 206.07h6.815" />
      <path class="b" d="M-15.371 165.18h27.259v27.259h-27.259z" />
      <path class="e" d="M-1.741 182.217v-6.815M-5.149 178.81h6.815" />
      <path class="b" d="M-15.371 137.921h27.259v27.259h-27.259z" />
      <path class="e" d="M-1.741 154.958v-6.815M-5.149 151.551h6.815" />
      <path class="b" d="M-15.371 110.661h27.259v27.259h-27.259z" />
      <path class="e" d="M-1.741 127.698v-6.815M-5.149 124.291h6.815" />
      <path class="b" d="M-15.371 83.402h27.259v27.259h-27.259z" />
      <path class="e" d="M-1.741 100.439v-6.815M-5.149 97.032h6.815" />
      <path class="b" d="M-15.371 56.142h27.259v27.259h-27.259z" />
      <path class="e" d="M-1.741 73.179v-6.815M-5.149 69.772h6.815" />
      <path class="b" d="M-15.371 28.883h27.259v27.259h-27.259z" />
      <path class="e" d="M-1.741 45.92v-6.815M-5.149 42.513h6.815" />
      <path class="b" d="M-15.371 1.623h27.259v27.259h-27.259z" />
      <path class="e" d="M-1.741 18.66v-6.815M-5.149 15.253h6.815" />
      <path class="b" d="M-15.371-25.636h27.259V1.623h-27.259z" />
      <path class="e" d="M-1.741-8.599v-6.815M-5.149-12.006h6.815" />
      <path class="b" d="M11.888 546.813h27.259v27.259H11.888z" />
      <path class="e" d="M25.518 563.85v-6.815M22.11 560.443h6.815" />
      <path class="b" d="M11.888 519.553h27.259v27.259H11.888z" />
      <path class="e" d="M25.518 536.59v-6.815M22.11 533.183h6.815" />
      <path class="b" d="M11.888 492.294h27.259v27.259H11.888z" />
      <path class="e" d="M25.518 509.331v-6.815M22.11 505.924h6.815" />
      <path class="b" d="M11.888 465.034h27.259v27.259H11.888z" />
      <path class="e" d="M25.518 482.071v-6.815M22.11 478.664h6.815" />
      <path class="b" d="M11.888 437.775h27.259v27.259H11.888z" />
      <path class="e" d="M25.518 454.812v-6.815M22.11 451.405h6.815" />
      <path class="b" d="M11.888 410.515h27.259v27.259H11.888z" />
      <path class="e" d="M25.518 427.552v-6.815M22.11 424.145h6.815" />
      <path class="b" d="M11.888 383.256h27.259v27.259H11.888z" />
      <path class="e" d="M25.518 400.293v-6.815M22.11 396.886h6.815" />
      <path class="b" d="M11.888 355.997h27.259v27.259H11.888z" />
      <path class="e" d="M25.518 373.034v-6.815M22.11 369.627h6.815" />
      <path class="b" d="M11.888 328.737h27.259v27.259H11.888z" />
      <path class="e" d="M25.518 345.774v-6.815M22.11 342.367h6.815" />
      <path class="b" d="M11.888 301.478h27.259v27.259H11.888z" />
      <path class="e" d="M25.518 318.515V311.7M22.11 315.108h6.815" />
      <path class="b" d="M11.888 274.218h27.259v27.259H11.888z" />
      <path class="e" d="M25.518 291.255v-6.815M22.11 287.848h6.815" />
      <path class="b" d="M11.888 246.959h27.259v27.259H11.888z" />
      <path class="e" d="M25.518 263.996v-6.815M22.11 260.589h6.815" />
      <path class="b" d="M11.888 219.699h27.259v27.259H11.888z" />
      <path class="e" d="M25.518 236.736v-6.815M22.11 233.329h6.815" />
      <path class="b" d="M11.888 192.44h27.259v27.259H11.888z" />
      <path class="e" d="M25.518 209.477v-6.815M22.11 206.07h6.815" />
      <path class="b" d="M11.888 165.18h27.259v27.259H11.888z" />
      <path class="e" d="M25.518 182.217v-6.815M22.11 178.81h6.815" />
      <path class="b" d="M11.888 137.921h27.259v27.259H11.888z" />
      <path class="e" d="M25.518 154.958v-6.815M22.11 151.551h6.815" />
      <path class="b" d="M11.888 110.661h27.259v27.259H11.888z" />
      <path class="e" d="M25.518 127.698v-6.815M22.11 124.291h6.815" />
      <path class="b" d="M11.888 83.402h27.259v27.259H11.888z" />
      <path class="e" d="M25.518 100.439v-6.815M22.11 97.032h6.815" />
      <path class="b" d="M11.888 56.142h27.259v27.259H11.888z" />
      <path class="e" d="M25.518 73.179v-6.815M22.11 69.772h6.815" />
      <path class="b" d="M11.888 28.883h27.259v27.259H11.888z" />
      <path class="e" d="M25.518 45.92v-6.815M22.11 42.513h6.815" />
      <path class="b" d="M11.888 1.623h27.259v27.259H11.888z" />
      <path class="e" d="M25.518 18.66v-6.815M22.11 15.253h6.815" />
      <path class="b" d="M11.888-25.636h27.259V1.623H11.888z" />
      <path class="e" d="M25.518-8.599v-6.815M22.11-12.006h6.815" />
      <path class="b" d="M39.148 546.813h27.259v27.259H39.148z" />
      <path class="e" d="M52.778 563.85v-6.815M49.37 560.443h6.815" />
      <path class="b" d="M39.148 519.553h27.259v27.259H39.148z" />
      <path class="e" d="M52.778 536.59v-6.815M49.37 533.183h6.815" />
      <path class="b" d="M39.148 492.294h27.259v27.259H39.148z" />
      <path class="e" d="M52.778 509.331v-6.815M49.37 505.924h6.815" />
      <path class="b" d="M39.148 465.034h27.259v27.259H39.148z" />
      <path class="e" d="M52.778 482.071v-6.815M49.37 478.664h6.815" />
      <path class="b" d="M39.148 437.775h27.259v27.259H39.148z" />
      <path class="e" d="M52.778 454.812v-6.815M49.37 451.405h6.815" />
      <path class="b" d="M39.148 410.515h27.259v27.259H39.148z" />
      <path class="e" d="M52.778 427.552v-6.815M49.37 424.145h6.815" />
      <path class="b" d="M39.148 383.256h27.259v27.259H39.148z" />
      <path class="e" d="M52.778 400.293v-6.815M49.37 396.886h6.815" />
      <path class="b" d="M39.148 355.997h27.259v27.259H39.148z" />
      <path class="e" d="M52.778 373.034v-6.815M49.37 369.627h6.815" />
      <path class="b" d="M39.148 328.737h27.259v27.259H39.148z" />
      <path class="e" d="M52.778 345.774v-6.815M49.37 342.367h6.815" />
      <path class="b" d="M39.148 301.478h27.259v27.259H39.148z" />
      <path class="e" d="M52.778 318.515V311.7M49.37 315.108h6.815" />
      <path class="b" d="M39.148 274.218h27.259v27.259H39.148z" />
      <path class="e" d="M52.778 291.255v-6.815M49.37 287.848h6.815" />
      <path class="b" d="M39.148 246.959h27.259v27.259H39.148z" />
      <path class="e" d="M52.778 263.996v-6.815M49.37 260.589h6.815" />
      <path class="b" d="M39.148 219.699h27.259v27.259H39.148z" />
      <path class="e" d="M52.778 236.736v-6.815M49.37 233.329h6.815" />
      <path class="b" d="M39.148 192.44h27.259v27.259H39.148z" />
      <path class="e" d="M52.778 209.477v-6.815M49.37 206.07h6.815" />
      <path class="b" d="M39.148 165.18h27.259v27.259H39.148z" />
      <path class="e" d="M52.778 182.217v-6.815M49.37 178.81h6.815" />
      <path class="b" d="M39.148 137.921h27.259v27.259H39.148z" />
      <path class="e" d="M52.778 154.958v-6.815M49.37 151.551h6.815" />
      <path class="b" d="M39.148 110.661h27.259v27.259H39.148z" />
      <path class="e" d="M52.778 127.698v-6.815M49.37 124.291h6.815" />
      <path class="b" d="M39.148 83.402h27.259v27.259H39.148z" />
      <path class="e" d="M52.778 100.439v-6.815M49.37 97.032h6.815" />
      <path class="b" d="M39.148 56.142h27.259v27.259H39.148z" />
      <path class="e" d="M52.778 73.179v-6.815M49.37 69.772h6.815" />
      <path class="b" d="M39.148 28.883h27.259v27.259H39.148z" />
      <path class="e" d="M52.778 45.92v-6.815M49.37 42.513h6.815" />
      <path class="b" d="M39.148 1.623h27.259v27.259H39.148z" />
      <path class="e" d="M52.778 18.66v-6.815M49.37 15.253h6.815" />
      <path class="b" d="M39.148-25.636h27.259V1.623H39.148z" />
      <path class="e" d="M52.778-8.599v-6.815M49.37-12.006h6.815" />
      <path class="b" d="M66.407 546.813h27.259v27.259H66.407z" />
      <path class="e" d="M80.037 563.85v-6.815M76.629 560.443h6.815" />
      <path class="b" d="M66.407 519.553h27.259v27.259H66.407z" />
      <path class="e" d="M80.037 536.59v-6.815M76.629 533.183h6.815" />
      <path class="b" d="M66.407 492.294h27.259v27.259H66.407z" />
      <path class="e" d="M80.037 509.331v-6.815M76.629 505.924h6.815" />
      <path class="b" d="M66.407 465.034h27.259v27.259H66.407z" />
      <path class="e" d="M80.037 482.071v-6.815M76.629 478.664h6.815" />
      <path class="b" d="M66.407 437.775h27.259v27.259H66.407z" />
      <path class="e" d="M80.037 454.812v-6.815M76.629 451.405h6.815" />
      <path class="b" d="M66.407 410.515h27.259v27.259H66.407z" />
      <path class="e" d="M80.037 427.552v-6.815M76.629 424.145h6.815" />
      <path class="b" d="M66.407 383.256h27.259v27.259H66.407z" />
      <path class="e" d="M80.037 400.293v-6.815M76.629 396.886h6.815" />
      <path class="b" d="M66.407 355.997h27.259v27.259H66.407z" />
      <path class="e" d="M80.037 373.034v-6.815M76.629 369.627h6.815" />
      <path class="b" d="M66.407 328.737h27.259v27.259H66.407z" />
      <path class="e" d="M80.037 345.774v-6.815M76.629 342.367h6.815" />
      <path class="b" d="M66.407 301.478h27.259v27.259H66.407z" />
      <path class="e" d="M80.037 318.515V311.7M76.629 315.108h6.815" />
      <path class="b" d="M66.407 274.218h27.259v27.259H66.407z" />
      <path class="e" d="M80.037 291.255v-6.815M76.629 287.848h6.815" />
      <path class="b" d="M66.407 246.959h27.259v27.259H66.407z" />
      <path class="e" d="M80.037 263.996v-6.815M76.629 260.589h6.815" />
      <path class="b" d="M66.407 219.699h27.259v27.259H66.407z" />
      <path class="e" d="M80.037 236.736v-6.815M76.629 233.329h6.815" />
      <path class="b" d="M66.407 192.44h27.259v27.259H66.407z" />
      <path class="e" d="M80.037 209.477v-6.815M76.629 206.07h6.815" />
      <path class="b" d="M66.407 165.18h27.259v27.259H66.407z" />
      <path class="e" d="M80.037 182.217v-6.815M76.629 178.81h6.815" />
      <path class="b" d="M66.407 137.921h27.259v27.259H66.407z" />
      <path class="e" d="M80.037 154.958v-6.815M76.629 151.551h6.815" />
      <path class="b" d="M66.407 110.661h27.259v27.259H66.407z" />
      <path class="e" d="M80.037 127.698v-6.815M76.629 124.291h6.815" />
      <path class="b" d="M66.407 83.402h27.259v27.259H66.407z" />
      <path class="e" d="M80.037 100.439v-6.815M76.629 97.032h6.815" />
      <path class="b" d="M66.407 56.142h27.259v27.259H66.407z" />
      <path class="e" d="M80.037 73.179v-6.815M76.629 69.772h6.815" />
      <path class="b" d="M66.407 28.883h27.259v27.259H66.407z" />
      <path class="e" d="M80.037 45.92v-6.815M76.629 42.513h6.815" />
      <path class="b" d="M66.407 1.623h27.259v27.259H66.407z" />
      <path class="e" d="M80.037 18.66v-6.815M76.629 15.253h6.815" />
      <path class="b" d="M66.407-25.636h27.259V1.623H66.407z" />
      <path class="e" d="M80.037-8.599v-6.815M76.629-12.006h6.815" />
      <path class="b" d="M93.667 546.813h27.259v27.259H93.667z" />
      <path class="e" d="M107.297 563.85v-6.815M103.889 560.443h6.815" />
      <path class="b" d="M93.667 519.553h27.259v27.259H93.667z" />
      <path class="e" d="M107.297 536.59v-6.815M103.889 533.183h6.815" />
      <path class="b" d="M93.667 492.294h27.259v27.259H93.667z" />
      <path class="e" d="M107.297 509.331v-6.815M103.889 505.924h6.815" />
      <path class="b" d="M93.667 465.034h27.259v27.259H93.667z" />
      <path class="e" d="M107.297 482.071v-6.815M103.889 478.664h6.815" />
      <path class="b" d="M93.667 437.775h27.259v27.259H93.667z" />
      <path class="e" d="M107.297 454.812v-6.815M103.889 451.405h6.815" />
      <path class="b" d="M93.667 410.515h27.259v27.259H93.667z" />
      <path class="e" d="M107.297 427.552v-6.815M103.889 424.145h6.815" />
      <path class="b" d="M93.667 383.256h27.259v27.259H93.667z" />
      <path class="e" d="M107.297 400.293v-6.815M103.889 396.886h6.815" />
      <path class="b" d="M93.667 355.997h27.259v27.259H93.667z" />
      <path class="e" d="M107.297 373.034v-6.815M103.889 369.627h6.815" />
      <path class="b" d="M93.667 328.737h27.259v27.259H93.667z" />
      <path class="e" d="M107.297 345.774v-6.815M103.889 342.367h6.815" />
      <path class="b" d="M93.667 301.478h27.259v27.259H93.667z" />
      <path class="e" d="M107.297 318.515V311.7M103.889 315.108h6.815" />
      <path class="b" d="M93.667 274.218h27.259v27.259H93.667z" />
      <path class="e" d="M107.297 291.255v-6.815M103.889 287.848h6.815" />
      <path class="b" d="M93.667 246.959h27.259v27.259H93.667z" />
      <path class="e" d="M107.297 263.996v-6.815M103.889 260.589h6.815" />
      <path class="b" d="M93.667 219.699h27.259v27.259H93.667z" />
      <path class="e" d="M107.297 236.736v-6.815M103.889 233.329h6.815" />
      <path class="b" d="M93.667 192.44h27.259v27.259H93.667z" />
      <path class="e" d="M107.297 209.477v-6.815M103.889 206.07h6.815" />
      <path class="b" d="M93.667 165.18h27.259v27.259H93.667z" />
      <path class="e" d="M107.297 182.217v-6.815M103.889 178.81h6.815" />
      <path class="b" d="M93.667 137.921h27.259v27.259H93.667z" />
      <path class="e" d="M107.297 154.958v-6.815M103.889 151.551h6.815" />
      <path class="b" d="M93.667 110.661h27.259v27.259H93.667z" />
      <path class="e" d="M107.297 127.698v-6.815M103.889 124.291h6.815" />
      <path class="b" d="M93.667 83.402h27.259v27.259H93.667z" />
      <path class="e" d="M107.297 100.439v-6.815M103.889 97.032h6.815" />
      <path class="b" d="M93.667 56.142h27.259v27.259H93.667z" />
      <path class="e" d="M107.297 73.179v-6.815M103.889 69.772h6.815" />
      <path class="b" d="M93.667 28.883h27.259v27.259H93.667z" />
      <path class="e" d="M107.297 45.92v-6.815M103.889 42.513h6.815" />
      <path class="b" d="M93.667 1.623h27.259v27.259H93.667z" />
      <path class="e" d="M107.297 18.66v-6.815M103.889 15.253h6.815" />
      <path class="b" d="M93.667-25.636h27.259V1.623H93.667z" />
      <path class="e" d="M107.297-8.599v-6.815M103.889-12.006h6.815" />
      <path class="b" d="M120.926 546.813h27.259v27.259h-27.259z" />
      <path class="e" d="M134.556 563.85v-6.815M131.148 560.443h6.815" />
      <path class="b" d="M120.926 519.553h27.259v27.259h-27.259z" />
      <path class="e" d="M134.556 536.59v-6.815M131.148 533.183h6.815" />
      <path class="b" d="M120.926 492.294h27.259v27.259h-27.259z" />
      <path class="e" d="M134.556 509.331v-6.815M131.148 505.924h6.815" />
      <path class="b" d="M120.926 465.034h27.259v27.259h-27.259z" />
      <path class="e" d="M134.556 482.071v-6.815M131.148 478.664h6.815" />
      <path class="b" d="M120.926 437.775h27.259v27.259h-27.259z" />
      <path class="e" d="M134.556 454.812v-6.815M131.148 451.405h6.815" />
      <path class="b" d="M120.926 410.515h27.259v27.259h-27.259z" />
      <path class="e" d="M134.556 427.552v-6.815M131.148 424.145h6.815" />
      <path class="b" d="M120.926 383.256h27.259v27.259h-27.259z" />
      <path class="e" d="M134.556 400.293v-6.815M131.148 396.886h6.815" />
      <path class="b" d="M120.926 355.997h27.259v27.259h-27.259z" />
      <path class="e" d="M134.556 373.034v-6.815M131.148 369.627h6.815" />
      <path class="b" d="M120.926 328.737h27.259v27.259h-27.259z" />
      <path class="e" d="M134.556 345.774v-6.815M131.148 342.367h6.815" />
      <path class="b" d="M120.926 301.478h27.259v27.259h-27.259z" />
      <path class="e" d="M134.556 318.515V311.7M131.148 315.108h6.815" />
      <path class="b" d="M120.926 274.218h27.259v27.259h-27.259z" />
      <path class="e" d="M134.556 291.255v-6.815M131.148 287.848h6.815" />
      <path class="b" d="M120.926 246.959h27.259v27.259h-27.259z" />
      <path class="e" d="M134.556 263.996v-6.815M131.148 260.589h6.815" />
      <path class="b" d="M120.926 219.699h27.259v27.259h-27.259z" />
      <path class="e" d="M134.556 236.736v-6.815M131.148 233.329h6.815" />
      <path class="b" d="M120.926 192.44h27.259v27.259h-27.259z" />
      <path class="e" d="M134.556 209.477v-6.815M131.148 206.07h6.815" />
      <path class="b" d="M120.926 165.18h27.259v27.259h-27.259z" />
      <path class="e" d="M134.556 182.217v-6.815M131.148 178.81h6.815" />
      <path class="b" d="M120.926 137.921h27.259v27.259h-27.259z" />
      <path class="e" d="M134.556 154.958v-6.815M131.148 151.551h6.815" />
      <path class="b" d="M120.926 110.661h27.259v27.259h-27.259z" />
      <path class="e" d="M134.556 127.698v-6.815M131.148 124.291h6.815" />
      <path class="b" d="M120.926 83.402h27.259v27.259h-27.259z" />
      <path class="e" d="M134.556 100.439v-6.815M131.148 97.032h6.815" />
      <path class="b" d="M120.926 56.142h27.259v27.259h-27.259z" />
      <path class="e" d="M134.556 73.179v-6.815M131.148 69.772h6.815" />
      <path class="b" d="M120.926 28.883h27.259v27.259h-27.259z" />
      <path class="e" d="M134.556 45.92v-6.815M131.148 42.513h6.815" />
      <path class="b" d="M120.926 1.623h27.259v27.259h-27.259z" />
      <path class="e" d="M134.556 18.66v-6.815M131.148 15.253h6.815" />
      <path class="b" d="M120.926-25.636h27.259V1.623h-27.259z" />
      <path class="e" d="M134.556-8.599v-6.815M131.148-12.006h6.815" />
      <path class="b" d="M148.186 546.813h27.259v27.259h-27.259z" />
      <path class="e" d="M161.816 563.85v-6.815M158.408 560.443h6.815" />
      <path class="b" d="M148.186 519.553h27.259v27.259h-27.259z" />
      <path class="e" d="M161.816 536.59v-6.815M158.408 533.183h6.815" />
      <path class="b" d="M148.186 492.294h27.259v27.259h-27.259z" />
      <path class="e" d="M161.816 509.331v-6.815M158.408 505.924h6.815" />
      <path class="b" d="M148.186 465.034h27.259v27.259h-27.259z" />
      <path class="e" d="M161.816 482.071v-6.815M158.408 478.664h6.815" />
      <path class="b" d="M148.186 437.775h27.259v27.259h-27.259z" />
      <path class="e" d="M161.816 454.812v-6.815M158.408 451.405h6.815" />
      <path class="b" d="M148.186 410.515h27.259v27.259h-27.259z" />
      <path class="e" d="M161.816 427.552v-6.815M158.408 424.145h6.815" />
      <path class="b" d="M148.186 383.256h27.259v27.259h-27.259z" />
      <path class="e" d="M161.816 400.293v-6.815M158.408 396.886h6.815" />
      <path class="b" d="M148.186 355.997h27.259v27.259h-27.259z" />
      <path class="e" d="M161.816 373.034v-6.815M158.408 369.627h6.815" />
      <path class="b" d="M148.186 328.737h27.259v27.259h-27.259z" />
      <path class="e" d="M161.816 345.774v-6.815M158.408 342.367h6.815" />
      <path class="b" d="M148.186 301.478h27.259v27.259h-27.259z" />
      <path class="e" d="M161.816 318.515V311.7M158.408 315.108h6.815" />
      <path class="b" d="M148.186 274.218h27.259v27.259h-27.259z" />
      <path class="e" d="M161.816 291.255v-6.815M158.408 287.848h6.815" />
      <path class="b" d="M148.186 246.959h27.259v27.259h-27.259z" />
      <path class="e" d="M161.816 263.996v-6.815M158.408 260.589h6.815" />
      <path class="b" d="M148.186 219.699h27.259v27.259h-27.259z" />
      <path class="e" d="M161.816 236.736v-6.815M158.408 233.329h6.815" />
      <path class="b" d="M148.186 192.44h27.259v27.259h-27.259z" />
      <path class="e" d="M161.816 209.477v-6.815M158.408 206.07h6.815" />
      <path class="b" d="M148.186 165.18h27.259v27.259h-27.259z" />
      <path class="e" d="M161.816 182.217v-6.815M158.408 178.81h6.815" />
      <path class="b" d="M148.186 137.921h27.259v27.259h-27.259z" />
      <path class="e" d="M161.816 154.958v-6.815M158.408 151.551h6.815" />
      <path class="b" d="M148.186 110.661h27.259v27.259h-27.259z" />
      <path class="e" d="M161.816 127.698v-6.815M158.408 124.291h6.815" />
      <path class="b" d="M148.186 83.402h27.259v27.259h-27.259z" />
      <path class="e" d="M161.816 100.439v-6.815M158.408 97.032h6.815" />
      <path class="b" d="M148.186 56.142h27.259v27.259h-27.259z" />
      <path class="e" d="M161.816 73.179v-6.815M158.408 69.772h6.815" />
      <path class="b" d="M148.186 28.883h27.259v27.259h-27.259z" />
      <path class="e" d="M161.816 45.92v-6.815M158.408 42.513h6.815" />
      <path class="b" d="M148.186 1.623h27.259v27.259h-27.259z" />
      <path class="e" d="M161.816 18.66v-6.815M158.408 15.253h6.815" />
      <path class="b" d="M148.186-25.636h27.259V1.623h-27.259z" />
      <path class="e" d="M161.816-8.599v-6.815M158.408-12.006h6.815" />
      <path class="b" d="M175.445 546.813h27.259v27.259h-27.259z" />
      <path class="e" d="M189.075 563.85v-6.815M185.667 560.443h6.815" />
      <path class="b" d="M175.445 519.553h27.259v27.259h-27.259z" />
      <path class="e" d="M189.075 536.59v-6.815M185.667 533.183h6.815" />
      <path class="b" d="M175.445 492.294h27.259v27.259h-27.259z" />
      <path class="e" d="M189.075 509.331v-6.815M185.667 505.924h6.815" />
      <path class="b" d="M175.445 465.034h27.259v27.259h-27.259z" />
      <path class="e" d="M189.075 482.071v-6.815M185.667 478.664h6.815" />
      <path class="b" d="M175.445 437.775h27.259v27.259h-27.259z" />
      <path class="e" d="M189.075 454.812v-6.815M185.667 451.405h6.815" />
      <path class="b" d="M175.445 410.515h27.259v27.259h-27.259z" />
      <path class="e" d="M189.075 427.552v-6.815M185.667 424.145h6.815" />
      <path class="b" d="M175.445 383.256h27.259v27.259h-27.259z" />
      <path class="e" d="M189.075 400.293v-6.815M185.667 396.886h6.815" />
      <path class="b" d="M175.445 355.997h27.259v27.259h-27.259z" />
      <path class="e" d="M189.075 373.034v-6.815M185.667 369.627h6.815" />
      <g>
        <path class="b" d="M175.445 328.737h27.259v27.259h-27.259z" />
        <path class="e" d="M189.075 345.774v-6.815M185.667 342.367h6.815" />
      </g>
      <g>
        <path class="b" d="M175.445 301.478h27.259v27.259h-27.259z" />
        <path class="e" d="M189.075 318.515V311.7M185.667 315.108h6.815" />
      </g>
      <g>
        <path class="b" d="M175.445 274.218h27.259v27.259h-27.259z" />
        <path class="e" d="M189.075 291.255v-6.815M185.667 287.848h6.815" />
      </g>
      <g>
        <path class="b" d="M175.445 246.959h27.259v27.259h-27.259z" />
        <path class="e" d="M189.075 263.996v-6.815M185.667 260.589h6.815" />
      </g>
      <g>
        <path class="b" d="M175.445 219.699h27.259v27.259h-27.259z" />
        <path class="e" d="M189.075 236.736v-6.815M185.667 233.329h6.815" />
      </g>
      <g>
        <path class="b" d="M175.445 192.44h27.259v27.259h-27.259z" />
        <path class="e" d="M189.075 209.477v-6.815M185.667 206.07h6.815" />
      </g>
      <g>
        <path class="b" d="M175.445 165.18h27.259v27.259h-27.259z" />
        <path class="e" d="M189.075 182.217v-6.815M185.667 178.81h6.815" />
      </g>
      <g>
        <path class="b" d="M175.445 137.921h27.259v27.259h-27.259z" />
        <path class="e" d="M189.075 154.958v-6.815M185.667 151.551h6.815" />
      </g>
      <g>
        <path class="b" d="M175.445 110.661h27.259v27.259h-27.259z" />
        <path class="e" d="M189.075 127.698v-6.815M185.667 124.291h6.815" />
      </g>
      <g>
        <path class="b" d="M175.445 83.402h27.259v27.259h-27.259z" />
        <path class="e" d="M189.075 100.439v-6.815M185.667 97.032h6.815" />
      </g>
      <g>
        <path class="b" d="M175.445 56.142h27.259v27.259h-27.259z" />
        <path class="e" d="M189.075 73.179v-6.815M185.667 69.772h6.815" />
      </g>
      <g>
        <path class="b" d="M175.445 28.883h27.259v27.259h-27.259z" />
        <path class="e" d="M189.075 45.92v-6.815M185.667 42.513h6.815" />
      </g>
      <g>
        <path class="b" d="M175.445 1.623h27.259v27.259h-27.259z" />
        <path class="e" d="M189.075 18.66v-6.815M185.667 15.253h6.815" />
      </g>
      <g>
        <path class="b" d="M175.445-25.636h27.259V1.623h-27.259z" />
        <path class="e" d="M189.075-8.599v-6.815M185.667-12.006h6.815" />
      </g>
      <g>
        <path class="b" d="M202.705 546.813h27.259v27.259h-27.259z" />
        <path class="e" d="M216.335 563.85v-6.815M212.927 560.443h6.815" />
      </g>
      <g>
        <path class="b" d="M202.705 519.553h27.259v27.259h-27.259z" />
        <path class="e" d="M216.335 536.59v-6.815M212.927 533.183h6.815" />
      </g>
      <g>
        <path class="b" d="M202.705 492.294h27.259v27.259h-27.259z" />
        <path class="e" d="M216.335 509.331v-6.815M212.927 505.924h6.815" />
      </g>
      <g>
        <path class="b" d="M202.705 465.034h27.259v27.259h-27.259z" />
        <path class="e" d="M216.335 482.071v-6.815M212.927 478.664h6.815" />
      </g>
      <g>
        <path class="b" d="M202.705 437.775h27.259v27.259h-27.259z" />
        <path class="e" d="M216.335 454.812v-6.815M212.927 451.405h6.815" />
      </g>
      <g>
        <path class="b" d="M202.705 410.515h27.259v27.259h-27.259z" />
        <path class="e" d="M216.335 427.552v-6.815M212.927 424.145h6.815" />
      </g>
      <g>
        <path class="b" d="M202.705 383.256h27.259v27.259h-27.259z" />
        <path class="e" d="M216.335 400.293v-6.815M212.927 396.886h6.815" />
      </g>
      <g>
        <path class="b" d="M202.705 355.997h27.259v27.259h-27.259z" />
        <path class="e" d="M216.335 373.034v-6.815M212.927 369.627h6.815" />
      </g>
      <g>
        <path class="b" d="M202.705 328.737h27.259v27.259h-27.259z" />
        <path class="e" d="M216.335 345.774v-6.815M212.927 342.367h6.815" />
      </g>
      <g>
        <path class="b" d="M202.705 301.478h27.259v27.259h-27.259z" />
        <path class="e" d="M216.335 318.515V311.7M212.927 315.108h6.815" />
      </g>
      <g>
        <path class="b" d="M202.705 274.218h27.259v27.259h-27.259z" />
        <path class="e" d="M216.335 291.255v-6.815M212.927 287.848h6.815" />
      </g>
      <g>
        <path class="b" d="M202.705 246.959h27.259v27.259h-27.259z" />
        <path class="e" d="M216.335 263.996v-6.815M212.927 260.589h6.815" />
      </g>
      <g>
        <path class="b" d="M202.705 219.699h27.259v27.259h-27.259z" />
        <path class="e" d="M216.335 236.736v-6.815M212.927 233.329h6.815" />
      </g>
      <g>
        <path class="b" d="M202.705 192.44h27.259v27.259h-27.259z" />
        <path class="e" d="M216.335 209.477v-6.815M212.927 206.07h6.815" />
      </g>
      <g>
        <path class="b" d="M202.705 165.18h27.259v27.259h-27.259z" />
        <path class="e" d="M216.335 182.217v-6.815M212.927 178.81h6.815" />
      </g>
      <g>
        <path class="b" d="M202.705 137.921h27.259v27.259h-27.259z" />
        <path class="e" d="M216.335 154.958v-6.815M212.927 151.551h6.815" />
      </g>
      <g>
        <path class="b" d="M202.705 110.661h27.259v27.259h-27.259z" />
        <path class="e" d="M216.335 127.698v-6.815M212.927 124.291h6.815" />
      </g>
      <g>
        <path class="b" d="M202.705 83.402h27.259v27.259h-27.259z" />
        <path class="e" d="M216.335 100.439v-6.815M212.927 97.032h6.815" />
      </g>
      <g>
        <path class="b" d="M202.705 56.142h27.259v27.259h-27.259z" />
        <path class="e" d="M216.335 73.179v-6.815M212.927 69.772h6.815" />
      </g>
      <g>
        <path class="b" d="M202.705 28.883h27.259v27.259h-27.259z" />
        <path class="e" d="M216.335 45.92v-6.815M212.927 42.513h6.815" />
      </g>
      <g>
        <path class="b" d="M202.705 1.623h27.259v27.259h-27.259z" />
        <path class="e" d="M216.335 18.66v-6.815M212.927 15.253h6.815" />
      </g>
      <g>
        <path class="b" d="M202.705-25.636h27.259V1.623h-27.259z" />
        <path class="e" d="M216.335-8.599v-6.815M212.927-12.006h6.815" />
      </g>
      <g>
        <path class="b" d="M229.964 546.813h27.259v27.259h-27.259z" />
        <path class="e" d="M243.594 563.85v-6.815M240.186 560.443h6.815" />
      </g>
      <g>
        <path class="b" d="M229.964 519.553h27.259v27.259h-27.259z" />
        <path class="e" d="M243.594 536.59v-6.815M240.186 533.183h6.815" />
      </g>
      <g>
        <path class="b" d="M229.964 492.294h27.259v27.259h-27.259z" />
        <path class="e" d="M243.594 509.331v-6.815M240.186 505.924h6.815" />
      </g>
      <g>
        <path class="b" d="M229.964 465.034h27.259v27.259h-27.259z" />
        <path class="e" d="M243.594 482.071v-6.815M240.186 478.664h6.815" />
      </g>
      <g>
        <path class="b" d="M229.964 437.775h27.259v27.259h-27.259z" />
        <path class="e" d="M243.594 454.812v-6.815M240.186 451.405h6.815" />
      </g>
      <g>
        <path class="b" d="M229.964 410.515h27.259v27.259h-27.259z" />
        <path class="e" d="M243.594 427.552v-6.815M240.186 424.145h6.815" />
      </g>
      <g>
        <path class="b" d="M229.964 383.256h27.259v27.259h-27.259z" />
        <path class="e" d="M243.594 400.293v-6.815M240.186 396.886h6.815" />
      </g>
      <g>
        <path class="b" d="M229.964 355.997h27.259v27.259h-27.259z" />
        <path class="e" d="M243.594 373.034v-6.815M240.186 369.627h6.815" />
      </g>
      <g>
        <path class="b" d="M229.964 328.737h27.259v27.259h-27.259z" />
        <path class="e" d="M243.594 345.774v-6.815M240.186 342.367h6.815" />
      </g>
      <g>
        <path class="b" d="M229.964 301.478h27.259v27.259h-27.259z" />
        <path class="e" d="M243.594 318.515V311.7M240.186 315.108h6.815" />
      </g>
      <g>
        <path class="b" d="M229.964 274.218h27.259v27.259h-27.259z" />
        <path class="e" d="M243.594 291.255v-6.815M240.186 287.848h6.815" />
      </g>
      <g>
        <path class="b" d="M229.964 246.959h27.259v27.259h-27.259z" />
        <path class="e" d="M243.594 263.996v-6.815M240.186 260.589h6.815" />
      </g>
      <g>
        <path class="b" d="M229.964 219.699h27.259v27.259h-27.259z" />
        <path class="e" d="M243.594 236.736v-6.815M240.186 233.329h6.815" />
      </g>
      <g>
        <path class="b" d="M229.964 192.44h27.259v27.259h-27.259z" />
        <path class="e" d="M243.594 209.477v-6.815M240.186 206.07h6.815" />
      </g>
      <g>
        <path class="b" d="M229.964 165.18h27.259v27.259h-27.259z" />
        <path class="e" d="M243.594 182.217v-6.815M240.186 178.81h6.815" />
      </g>
      <g>
        <path class="b" d="M229.964 137.921h27.259v27.259h-27.259z" />
        <path class="e" d="M243.594 154.958v-6.815M240.186 151.551h6.815" />
      </g>
      <g>
        <path class="b" d="M229.964 110.661h27.259v27.259h-27.259z" />
        <path class="e" d="M243.594 127.698v-6.815M240.186 124.291h6.815" />
      </g>
      <g>
        <path class="b" d="M229.964 83.402h27.259v27.259h-27.259z" />
        <path class="e" d="M243.594 100.439v-6.815M240.186 97.032h6.815" />
      </g>
      <g>
        <path class="b" d="M229.964 56.142h27.259v27.259h-27.259z" />
        <path class="e" d="M243.594 73.179v-6.815M240.186 69.772h6.815" />
      </g>
      <g>
        <path class="b" d="M229.964 28.883h27.259v27.259h-27.259z" />
        <path class="e" d="M243.594 45.92v-6.815M240.186 42.513h6.815" />
      </g>
      <g>
        <path class="b" d="M229.964 1.623h27.259v27.259h-27.259z" />
        <path class="e" d="M243.594 18.66v-6.815M240.186 15.253h6.815" />
      </g>
      <g>
        <path class="b" d="M229.964-25.636h27.259V1.623h-27.259z" />
        <path class="e" d="M243.594-8.599v-6.815M240.186-12.006h6.815" />
      </g>
      <g>
        <path class="b" d="M257.224 546.813h27.259v27.259h-27.259z" />
        <path class="e" d="M270.854 563.85v-6.815M267.446 560.443h6.815" />
      </g>
      <g>
        <path class="b" d="M257.224 519.553h27.259v27.259h-27.259z" />
        <path class="e" d="M270.854 536.59v-6.815M267.446 533.183h6.815" />
      </g>
      <g>
        <path class="b" d="M257.224 492.294h27.259v27.259h-27.259z" />
        <path class="e" d="M270.854 509.331v-6.815M267.446 505.924h6.815" />
      </g>
      <g>
        <path class="b" d="M257.224 465.034h27.259v27.259h-27.259z" />
        <path class="e" d="M270.854 482.071v-6.815M267.446 478.664h6.815" />
      </g>
      <g>
        <path class="b" d="M257.224 437.775h27.259v27.259h-27.259z" />
        <path class="e" d="M270.854 454.812v-6.815M267.446 451.405h6.815" />
      </g>
      <g>
        <path class="b" d="M257.224 410.515h27.259v27.259h-27.259z" />
        <path class="e" d="M270.854 427.552v-6.815M267.446 424.145h6.815" />
      </g>
      <g>
        <path class="b" d="M257.224 383.256h27.259v27.259h-27.259z" />
        <path class="e" d="M270.854 400.293v-6.815M267.446 396.886h6.815" />
      </g>
      <g>
        <path class="b" d="M257.224 355.997h27.259v27.259h-27.259z" />
        <path class="e" d="M270.854 373.034v-6.815M267.446 369.627h6.815" />
      </g>
      <g>
        <path class="b" d="M257.224 328.737h27.259v27.259h-27.259z" />
        <path class="e" d="M270.854 345.774v-6.815M267.446 342.367h6.815" />
      </g>
      <g>
        <path class="b" d="M257.224 301.478h27.259v27.259h-27.259z" />
        <path class="e" d="M270.854 318.515V311.7M267.446 315.108h6.815" />
      </g>
      <g>
        <path class="b" d="M257.224 274.218h27.259v27.259h-27.259z" />
        <path class="e" d="M270.854 291.255v-6.815M267.446 287.848h6.815" />
      </g>
      <g>
        <path class="b" d="M257.224 246.959h27.259v27.259h-27.259z" />
        <path class="e" d="M270.854 263.996v-6.815M267.446 260.589h6.815" />
      </g>
      <g>
        <path class="b" d="M257.224 219.699h27.259v27.259h-27.259z" />
        <path class="e" d="M270.854 236.736v-6.815M267.446 233.329h6.815" />
      </g>
      <g>
        <path class="b" d="M257.224 192.44h27.259v27.259h-27.259z" />
        <path class="e" d="M270.854 209.477v-6.815M267.446 206.07h6.815" />
      </g>
      <g>
        <path class="b" d="M257.224 165.18h27.259v27.259h-27.259z" />
        <path class="e" d="M270.854 182.217v-6.815M267.446 178.81h6.815" />
      </g>
      <g>
        <path class="b" d="M257.224 137.921h27.259v27.259h-27.259z" />
        <path class="e" d="M270.854 154.958v-6.815M267.446 151.551h6.815" />
      </g>
      <g>
        <path class="b" d="M257.224 110.661h27.259v27.259h-27.259z" />
        <path class="e" d="M270.854 127.698v-6.815M267.446 124.291h6.815" />
      </g>
      <g>
        <path class="b" d="M257.224 83.402h27.259v27.259h-27.259z" />
        <path class="e" d="M270.854 100.439v-6.815M267.446 97.032h6.815" />
      </g>
      <g>
        <path class="b" d="M257.224 56.142h27.259v27.259h-27.259z" />
        <path class="e" d="M270.854 73.179v-6.815M267.446 69.772h6.815" />
      </g>
      <g>
        <path class="b" d="M257.224 28.883h27.259v27.259h-27.259z" />
        <path class="e" d="M270.854 45.92v-6.815M267.446 42.513h6.815" />
      </g>
      <g>
        <path class="b" d="M257.224 1.623h27.259v27.259h-27.259z" />
        <path class="e" d="M270.854 18.66v-6.815M267.446 15.253h6.815" />
      </g>
      <g>
        <path class="b" d="M257.224-25.636h27.259V1.623h-27.259z" />
        <path class="e" d="M270.854-8.599v-6.815M267.446-12.006h6.815" />
      </g>
      <g>
        <path class="b" d="M284.483 546.813h27.259v27.259h-27.259z" />
        <path class="e" d="M298.113 563.85v-6.815M294.705 560.443h6.815" />
      </g>
      <g>
        <path class="b" d="M284.483 519.553h27.259v27.259h-27.259z" />
        <path class="e" d="M298.113 536.59v-6.815M294.705 533.183h6.815" />
      </g>
      <g>
        <path class="b" d="M284.483 492.294h27.259v27.259h-27.259z" />
        <path class="e" d="M298.113 509.331v-6.815M294.705 505.924h6.815" />
      </g>
      <g>
        <path class="b" d="M284.483 465.034h27.259v27.259h-27.259z" />
        <path class="e" d="M298.113 482.071v-6.815M294.705 478.664h6.815" />
      </g>
      <g>
        <path class="b" d="M284.483 437.775h27.259v27.259h-27.259z" />
        <path class="e" d="M298.113 454.812v-6.815M294.705 451.405h6.815" />
      </g>
      <g>
        <path class="b" d="M284.483 410.515h27.259v27.259h-27.259z" />
        <path class="e" d="M298.113 427.552v-6.815M294.705 424.145h6.815" />
      </g>
      <g>
        <path class="b" d="M284.483 383.256h27.259v27.259h-27.259z" />
        <path class="e" d="M298.113 400.293v-6.815M294.705 396.886h6.815" />
      </g>
      <g>
        <path class="b" d="M284.483 355.997h27.259v27.259h-27.259z" />
        <path class="e" d="M298.113 373.034v-6.815M294.705 369.627h6.815" />
      </g>
      <g>
        <path class="b" d="M284.483 328.737h27.259v27.259h-27.259z" />
        <path class="e" d="M298.113 345.774v-6.815M294.705 342.367h6.815" />
      </g>
      <g>
        <path class="b" d="M284.483 301.478h27.259v27.259h-27.259z" />
        <path class="e" d="M298.113 318.515V311.7M294.705 315.108h6.815" />
      </g>
      <g>
        <path class="b" d="M284.483 274.218h27.259v27.259h-27.259z" />
        <path class="e" d="M298.113 291.255v-6.815M294.705 287.848h6.815" />
      </g>
      <g>
        <path class="b" d="M284.483 246.959h27.259v27.259h-27.259z" />
        <path class="e" d="M298.113 263.996v-6.815M294.705 260.589h6.815" />
      </g>
      <g>
        <path class="b" d="M284.483 219.699h27.259v27.259h-27.259z" />
        <path class="e" d="M298.113 236.736v-6.815M294.705 233.329h6.815" />
      </g>
      <g>
        <path class="b" d="M284.483 192.44h27.259v27.259h-27.259z" />
        <path class="e" d="M298.113 209.477v-6.815M294.705 206.07h6.815" />
      </g>
      <g>
        <path class="b" d="M284.483 165.18h27.259v27.259h-27.259z" />
        <path class="e" d="M298.113 182.217v-6.815M294.705 178.81h6.815" />
      </g>
      <g>
        <path class="b" d="M284.483 137.921h27.259v27.259h-27.259z" />
        <path class="e" d="M298.113 154.958v-6.815M294.705 151.551h6.815" />
      </g>
      <g>
        <path class="b" d="M284.483 110.661h27.259v27.259h-27.259z" />
        <path class="e" d="M298.113 127.698v-6.815M294.705 124.291h6.815" />
      </g>
      <g>
        <path class="b" d="M284.483 83.402h27.259v27.259h-27.259z" />
        <path class="e" d="M298.113 100.439v-6.815M294.705 97.032h6.815" />
      </g>
      <g>
        <path class="b" d="M284.483 56.142h27.259v27.259h-27.259z" />
        <path class="e" d="M298.113 73.179v-6.815M294.705 69.772h6.815" />
      </g>
      <g>
        <path class="b" d="M284.483 28.883h27.259v27.259h-27.259z" />
        <path class="e" d="M298.113 45.92v-6.815M294.705 42.513h6.815" />
      </g>
      <g>
        <path class="b" d="M284.483 1.623h27.259v27.259h-27.259z" />
        <path class="e" d="M298.113 18.66v-6.815M294.705 15.253h6.815" />
      </g>
      <g>
        <path class="b" d="M284.483-25.636h27.259V1.623h-27.259z" />
        <path class="e" d="M298.113-8.599v-6.815M294.705-12.006h6.815" />
      </g>
      <g>
        <path class="b" d="M311.743 546.813h27.259v27.259h-27.259z" />
        <path class="e" d="M325.373 563.85v-6.815M321.965 560.443h6.815" />
      </g>
      <g>
        <path class="b" d="M311.743 519.553h27.259v27.259h-27.259z" />
        <path class="e" d="M325.373 536.59v-6.815M321.965 533.183h6.815" />
      </g>
      <g>
        <path class="b" d="M311.743 492.294h27.259v27.259h-27.259z" />
        <path class="e" d="M325.373 509.331v-6.815M321.965 505.924h6.815" />
      </g>
      <g>
        <path class="b" d="M311.743 465.034h27.259v27.259h-27.259z" />
        <path class="e" d="M325.373 482.071v-6.815M321.965 478.664h6.815" />
      </g>
      <g>
        <path class="b" d="M311.743 437.775h27.259v27.259h-27.259z" />
        <path class="e" d="M325.373 454.812v-6.815M321.965 451.405h6.815" />
      </g>
      <g>
        <path class="b" d="M311.743 410.515h27.259v27.259h-27.259z" />
        <path class="e" d="M325.373 427.552v-6.815M321.965 424.145h6.815" />
      </g>
      <g>
        <path class="b" d="M311.743 383.256h27.259v27.259h-27.259z" />
        <path class="e" d="M325.373 400.293v-6.815M321.965 396.886h6.815" />
      </g>
      <g>
        <path class="b" d="M311.743 355.997h27.259v27.259h-27.259z" />
        <path class="e" d="M325.373 373.034v-6.815M321.965 369.627h6.815" />
      </g>
      <g>
        <path class="b" d="M311.743 328.737h27.259v27.259h-27.259z" />
        <path class="e" d="M325.373 345.774v-6.815M321.965 342.367h6.815" />
      </g>
      <g>
        <path class="b" d="M311.743 301.478h27.259v27.259h-27.259z" />
        <path class="e" d="M325.373 318.515V311.7M321.965 315.108h6.815" />
      </g>
      <g>
        <path class="b" d="M311.743 274.218h27.259v27.259h-27.259z" />
        <path class="e" d="M325.373 291.255v-6.815M321.965 287.848h6.815" />
      </g>
      <g>
        <path class="b" d="M311.743 246.959h27.259v27.259h-27.259z" />
        <path class="e" d="M325.373 263.996v-6.815M321.965 260.589h6.815" />
      </g>
      <g>
        <path class="b" d="M311.743 219.699h27.259v27.259h-27.259z" />
        <path class="e" d="M325.373 236.736v-6.815M321.965 233.329h6.815" />
      </g>
      <g>
        <path class="b" d="M311.743 192.44h27.259v27.259h-27.259z" />
        <path class="e" d="M325.373 209.477v-6.815M321.965 206.07h6.815" />
      </g>
      <g>
        <path class="b" d="M311.743 165.18h27.259v27.259h-27.259z" />
        <path class="e" d="M325.373 182.217v-6.815M321.965 178.81h6.815" />
      </g>
      <g>
        <path class="b" d="M311.743 137.921h27.259v27.259h-27.259z" />
        <path class="e" d="M325.373 154.958v-6.815M321.965 151.551h6.815" />
      </g>
      <g>
        <path class="b" d="M311.743 110.661h27.259v27.259h-27.259z" />
        <path class="e" d="M325.373 127.698v-6.815M321.965 124.291h6.815" />
      </g>
      <g>
        <path class="b" d="M311.743 83.402h27.259v27.259h-27.259z" />
        <path class="e" d="M325.373 100.439v-6.815M321.965 97.032h6.815" />
      </g>
      <g>
        <path class="b" d="M311.743 56.142h27.259v27.259h-27.259z" />
        <path class="e" d="M325.373 73.179v-6.815M321.965 69.772h6.815" />
      </g>
      <g>
        <path class="b" d="M311.743 28.883h27.259v27.259h-27.259z" />
        <path class="e" d="M325.373 45.92v-6.815M321.965 42.513h6.815" />
      </g>
      <g>
        <path class="b" d="M311.743 1.623h27.259v27.259h-27.259z" />
        <path class="e" d="M325.373 18.66v-6.815M321.965 15.253h6.815" />
      </g>
      <g>
        <path class="b" d="M311.743-25.636h27.259V1.623h-27.259z" />
        <path class="e" d="M325.373-8.599v-6.815M321.965-12.006h6.815" />
      </g>
      <g>
        <path class="b" d="M339.002 546.813h27.259v27.259h-27.259z" />
        <path class="e" d="M352.632 563.85v-6.815M349.224 560.443h6.815" />
      </g>
      <g>
        <path class="b" d="M339.002 519.553h27.259v27.259h-27.259z" />
        <path class="e" d="M352.632 536.59v-6.815M349.224 533.183h6.815" />
      </g>
      <g>
        <path class="b" d="M339.002 492.294h27.259v27.259h-27.259z" />
        <path class="e" d="M352.632 509.331v-6.815M349.224 505.924h6.815" />
      </g>
      <g>
        <path class="b" d="M339.002 465.034h27.259v27.259h-27.259z" />
        <path class="e" d="M352.632 482.071v-6.815M349.224 478.664h6.815" />
      </g>
      <g>
        <path class="b" d="M339.002 437.775h27.259v27.259h-27.259z" />
        <path class="e" d="M352.632 454.812v-6.815M349.224 451.405h6.815" />
      </g>
      <g>
        <path class="b" d="M339.002 410.515h27.259v27.259h-27.259z" />
        <path class="e" d="M352.632 427.552v-6.815M349.224 424.145h6.815" />
      </g>
      <g>
        <path class="b" d="M339.002 383.256h27.259v27.259h-27.259z" />
        <path class="e" d="M352.632 400.293v-6.815M349.224 396.886h6.815" />
      </g>
      <g>
        <path class="b" d="M339.002 355.997h27.259v27.259h-27.259z" />
        <path class="e" d="M352.632 373.034v-6.815M349.224 369.627h6.815" />
      </g>
      <g>
        <path class="b" d="M339.002 328.737h27.259v27.259h-27.259z" />
        <path class="e" d="M352.632 345.774v-6.815M349.224 342.367h6.815" />
      </g>
      <g>
        <path class="b" d="M339.002 301.478h27.259v27.259h-27.259z" />
        <path class="e" d="M352.632 318.515V311.7M349.224 315.108h6.815" />
      </g>
      <g>
        <path class="b" d="M339.002 274.218h27.259v27.259h-27.259z" />
        <path class="e" d="M352.632 291.255v-6.815M349.224 287.848h6.815" />
      </g>
      <g>
        <path class="b" d="M339.002 246.959h27.259v27.259h-27.259z" />
        <path class="e" d="M352.632 263.996v-6.815M349.224 260.589h6.815" />
      </g>
      <g>
        <path class="b" d="M339.002 219.699h27.259v27.259h-27.259z" />
        <path class="e" d="M352.632 236.736v-6.815M349.224 233.329h6.815" />
      </g>
      <g>
        <path class="b" d="M339.002 192.44h27.259v27.259h-27.259z" />
        <path class="e" d="M352.632 209.477v-6.815M349.224 206.07h6.815" />
      </g>
      <g>
        <path class="b" d="M339.002 165.18h27.259v27.259h-27.259z" />
        <path class="e" d="M352.632 182.217v-6.815M349.224 178.81h6.815" />
      </g>
      <g>
        <path class="b" d="M339.002 137.921h27.259v27.259h-27.259z" />
        <path class="e" d="M352.632 154.958v-6.815M349.224 151.551h6.815" />
      </g>
      <g>
        <path class="b" d="M339.002 110.661h27.259v27.259h-27.259z" />
        <path class="e" d="M352.632 127.698v-6.815M349.224 124.291h6.815" />
      </g>
      <g>
        <path class="b" d="M339.002 83.402h27.259v27.259h-27.259z" />
        <path class="e" d="M352.632 100.439v-6.815M349.224 97.032h6.815" />
      </g>
      <g>
        <path class="b" d="M339.002 56.142h27.259v27.259h-27.259z" />
        <path class="e" d="M352.632 73.179v-6.815M349.224 69.772h6.815" />
      </g>
      <g>
        <path class="b" d="M339.002 28.883h27.259v27.259h-27.259z" />
        <path class="e" d="M352.632 45.92v-6.815M349.224 42.513h6.815" />
      </g>
      <g>
        <path class="b" d="M339.002 1.623h27.259v27.259h-27.259z" />
        <path class="e" d="M352.632 18.66v-6.815M349.224 15.253h6.815" />
      </g>
      <g>
        <path class="b" d="M339.002-25.636h27.259V1.623h-27.259z" />
        <path class="e" d="M352.632-8.599v-6.815M349.224-12.006h6.815" />
      </g>
      <g>
        <path class="b" d="M366.261 546.813h27.259v27.259h-27.259z" />
        <path class="e" d="M379.891 563.85v-6.815M376.483 560.443h6.815" />
      </g>
      <g>
        <path class="b" d="M366.261 519.553h27.259v27.259h-27.259z" />
        <path class="e" d="M379.891 536.59v-6.815M376.483 533.183h6.815" />
      </g>
      <g>
        <path class="b" d="M366.261 492.294h27.259v27.259h-27.259z" />
        <path class="e" d="M379.891 509.331v-6.815M376.483 505.924h6.815" />
      </g>
      <g>
        <path class="b" d="M366.261 465.034h27.259v27.259h-27.259z" />
        <path class="e" d="M379.891 482.071v-6.815M376.483 478.664h6.815" />
      </g>
      <g>
        <path class="b" d="M366.261 437.775h27.259v27.259h-27.259z" />
        <path class="e" d="M379.891 454.812v-6.815M376.483 451.405h6.815" />
      </g>
      <g>
        <path class="b" d="M366.261 410.515h27.259v27.259h-27.259z" />
        <path class="e" d="M379.891 427.552v-6.815M376.483 424.145h6.815" />
      </g>
      <g>
        <path class="b" d="M366.261 383.256h27.259v27.259h-27.259z" />
        <path class="e" d="M379.891 400.293v-6.815M376.483 396.886h6.815" />
      </g>
      <g>
        <path class="b" d="M366.261 355.997h27.259v27.259h-27.259z" />
        <path class="e" d="M379.891 373.034v-6.815M376.483 369.627h6.815" />
      </g>
      <g>
        <path class="b" d="M366.261 328.737h27.259v27.259h-27.259z" />
        <path class="e" d="M379.891 345.774v-6.815M376.483 342.367h6.815" />
      </g>
      <g>
        <path class="b" d="M366.261 301.478h27.259v27.259h-27.259z" />
        <path class="e" d="M379.891 318.515V311.7M376.483 315.108h6.815" />
      </g>
      <g>
        <path class="b" d="M366.261 274.218h27.259v27.259h-27.259z" />
        <path class="e" d="M379.891 291.255v-6.815M376.483 287.848h6.815" />
      </g>
      <g>
        <path class="b" d="M366.261 246.959h27.259v27.259h-27.259z" />
        <path class="e" d="M379.891 263.996v-6.815M376.483 260.589h6.815" />
      </g>
      <g>
        <path class="b" d="M366.261 219.699h27.259v27.259h-27.259z" />
        <path class="e" d="M379.891 236.736v-6.815M376.483 233.329h6.815" />
      </g>
      <g>
        <path class="b" d="M366.261 192.44h27.259v27.259h-27.259z" />
        <path class="e" d="M379.891 209.477v-6.815M376.483 206.07h6.815" />
      </g>
      <g>
        <path class="b" d="M366.261 165.18h27.259v27.259h-27.259z" />
        <path class="e" d="M379.891 182.217v-6.815M376.483 178.81h6.815" />
      </g>
      <g>
        <path class="b" d="M366.261 137.921h27.259v27.259h-27.259z" />
        <path class="e" d="M379.891 154.958v-6.815M376.483 151.551h6.815" />
      </g>
      <g>
        <path class="b" d="M366.261 110.661h27.259v27.259h-27.259z" />
        <path class="e" d="M379.891 127.698v-6.815M376.483 124.291h6.815" />
      </g>
      <g>
        <path class="b" d="M366.261 83.402h27.259v27.259h-27.259z" />
        <path class="e" d="M379.891 100.439v-6.815M376.483 97.032h6.815" />
      </g>
      <g>
        <path class="b" d="M366.261 56.142h27.259v27.259h-27.259z" />
        <path class="e" d="M379.891 73.179v-6.815M376.483 69.772h6.815" />
      </g>
      <g>
        <path class="b" d="M366.261 28.883h27.259v27.259h-27.259z" />
        <path class="e" d="M379.891 45.92v-6.815M376.483 42.513h6.815" />
      </g>
      <g>
        <path class="b" d="M366.261 1.623h27.259v27.259h-27.259z" />
        <path class="e" d="M379.891 18.66v-6.815M376.483 15.253h6.815" />
      </g>
      <g>
        <path class="b" d="M366.261-25.636h27.259V1.623h-27.259z" />
        <path class="e" d="M379.891-8.599v-6.815M376.483-12.006h6.815" />
      </g>
      <g>
        <path class="b" d="M393.521 546.813h27.259v27.259h-27.259z" />
        <path class="e" d="M407.151 563.85v-6.815M403.743 560.443h6.815" />
      </g>
      <g>
        <path class="b" d="M393.521 519.553h27.259v27.259h-27.259z" />
        <path class="e" d="M407.151 536.59v-6.815M403.743 533.183h6.815" />
      </g>
      <g>
        <path class="b" d="M393.521 492.294h27.259v27.259h-27.259z" />
        <path class="e" d="M407.151 509.331v-6.815M403.743 505.924h6.815" />
      </g>
      <g>
        <path class="b" d="M393.521 465.034h27.259v27.259h-27.259z" />
        <path class="e" d="M407.151 482.071v-6.815M403.743 478.664h6.815" />
      </g>
      <g>
        <path class="b" d="M393.521 437.775h27.259v27.259h-27.259z" />
        <path class="e" d="M407.151 454.812v-6.815M403.743 451.405h6.815" />
      </g>
      <g>
        <path class="b" d="M393.521 410.515h27.259v27.259h-27.259z" />
        <path class="e" d="M407.151 427.552v-6.815M403.743 424.145h6.815" />
      </g>
      <g>
        <path class="b" d="M393.521 383.256h27.259v27.259h-27.259z" />
        <path class="e" d="M407.151 400.293v-6.815M403.743 396.886h6.815" />
      </g>
      <g>
        <path class="b" d="M393.521 355.997h27.259v27.259h-27.259z" />
        <path class="e" d="M407.151 373.034v-6.815M403.743 369.627h6.815" />
      </g>
      <g>
        <path class="b" d="M393.521 328.737h27.259v27.259h-27.259z" />
        <path class="e" d="M407.151 345.774v-6.815M403.743 342.367h6.815" />
      </g>
      <g>
        <path class="b" d="M393.521 301.478h27.259v27.259h-27.259z" />
        <path class="e" d="M407.151 318.515V311.7M403.743 315.108h6.815" />
      </g>
      <g>
        <path class="b" d="M393.521 274.218h27.259v27.259h-27.259z" />
        <path class="e" d="M407.151 291.255v-6.815M403.743 287.848h6.815" />
      </g>
      <g>
        <path class="b" d="M393.521 246.959h27.259v27.259h-27.259z" />
        <path class="e" d="M407.151 263.996v-6.815M403.743 260.589h6.815" />
      </g>
      <g>
        <path class="b" d="M393.521 219.699h27.259v27.259h-27.259z" />
        <path class="e" d="M407.151 236.736v-6.815M403.743 233.329h6.815" />
      </g>
      <g>
        <path class="b" d="M393.521 192.44h27.259v27.259h-27.259z" />
        <path class="e" d="M407.151 209.477v-6.815M403.743 206.07h6.815" />
      </g>
      <g>
        <path class="b" d="M393.521 165.18h27.259v27.259h-27.259z" />
        <path class="e" d="M407.151 182.217v-6.815M403.743 178.81h6.815" />
      </g>
      <g>
        <path class="b" d="M393.521 137.921h27.259v27.259h-27.259z" />
        <path class="e" d="M407.151 154.958v-6.815M403.743 151.551h6.815" />
      </g>
      <g>
        <path class="b" d="M393.521 110.661h27.259v27.259h-27.259z" />
        <path class="e" d="M407.151 127.698v-6.815M403.743 124.291h6.815" />
      </g>
      <g>
        <path class="b" d="M393.521 83.402h27.259v27.259h-27.259z" />
        <path class="e" d="M407.151 100.439v-6.815M403.743 97.032h6.815" />
      </g>
      <g>
        <path class="b" d="M393.521 56.142h27.259v27.259h-27.259z" />
        <path class="e" d="M407.151 73.179v-6.815M403.743 69.772h6.815" />
      </g>
      <g>
        <path class="b" d="M393.521 28.883h27.259v27.259h-27.259z" />
        <path class="e" d="M407.151 45.92v-6.815M403.743 42.513h6.815" />
      </g>
      <g>
        <path class="b" d="M393.521 1.623h27.259v27.259h-27.259z" />
        <path class="e" d="M407.151 18.66v-6.815M403.743 15.253h6.815" />
      </g>
      <g>
        <path class="b" d="M393.521-25.636h27.259V1.623h-27.259z" />
        <path class="e" d="M407.151-8.599v-6.815M403.743-12.006h6.815" />
      </g>
      <g>
        <path class="b" d="M420.78 546.813h27.259v27.259H420.78z" />
        <path class="e" d="M434.41 563.85v-6.815M431.002 560.443h6.815" />
      </g>
      <g>
        <path class="b" d="M420.78 519.553h27.259v27.259H420.78z" />
        <path class="e" d="M434.41 536.59v-6.815M431.002 533.183h6.815" />
      </g>
      <g>
        <path class="b" d="M420.78 492.294h27.259v27.259H420.78z" />
        <path class="e" d="M434.41 509.331v-6.815M431.002 505.924h6.815" />
      </g>
      <g>
        <path class="b" d="M420.78 465.034h27.259v27.259H420.78z" />
        <path class="e" d="M434.41 482.071v-6.815M431.002 478.664h6.815" />
      </g>
      <g>
        <path class="b" d="M420.78 437.775h27.259v27.259H420.78z" />
        <path class="e" d="M434.41 454.812v-6.815M431.002 451.405h6.815" />
      </g>
      <g>
        <path class="b" d="M420.78 410.515h27.259v27.259H420.78z" />
        <path class="e" d="M434.41 427.552v-6.815M431.002 424.145h6.815" />
      </g>
      <g>
        <path class="b" d="M420.78 383.256h27.259v27.259H420.78z" />
        <path class="e" d="M434.41 400.293v-6.815M431.002 396.886h6.815" />
      </g>
      <g>
        <path class="b" d="M420.78 355.997h27.259v27.259H420.78z" />
        <path class="e" d="M434.41 373.034v-6.815M431.002 369.627h6.815" />
      </g>
      <g>
        <path class="b" d="M420.78 328.737h27.259v27.259H420.78z" />
        <path class="e" d="M434.41 345.774v-6.815M431.002 342.367h6.815" />
      </g>
      <g>
        <path class="b" d="M420.78 301.478h27.259v27.259H420.78z" />
        <path class="e" d="M434.41 318.515V311.7M431.002 315.108h6.815" />
      </g>
      <g>
        <path class="b" d="M420.78 274.218h27.259v27.259H420.78z" />
        <path class="e" d="M434.41 291.255v-6.815M431.002 287.848h6.815" />
      </g>
      <g>
        <path class="b" d="M420.78 246.959h27.259v27.259H420.78z" />
        <path class="e" d="M434.41 263.996v-6.815M431.002 260.589h6.815" />
      </g>
      <g>
        <path class="b" d="M420.78 219.699h27.259v27.259H420.78z" />
        <path class="e" d="M434.41 236.736v-6.815M431.002 233.329h6.815" />
      </g>
      <g>
        <path class="b" d="M420.78 192.44h27.259v27.259H420.78z" />
        <path class="e" d="M434.41 209.477v-6.815M431.002 206.07h6.815" />
      </g>
      <g>
        <path class="b" d="M420.78 165.18h27.259v27.259H420.78z" />
        <path class="e" d="M434.41 182.217v-6.815M431.002 178.81h6.815" />
      </g>
      <g>
        <path class="b" d="M420.78 137.921h27.259v27.259H420.78z" />
        <path class="e" d="M434.41 154.958v-6.815M431.002 151.551h6.815" />
      </g>
      <g>
        <path class="b" d="M420.78 110.661h27.259v27.259H420.78z" />
        <path class="e" d="M434.41 127.698v-6.815M431.002 124.291h6.815" />
      </g>
      <g>
        <path class="b" d="M420.78 83.402h27.259v27.259H420.78z" />
        <path class="e" d="M434.41 100.439v-6.815M431.002 97.032h6.815" />
      </g>
      <g>
        <path class="b" d="M420.78 56.142h27.259v27.259H420.78z" />
        <path class="e" d="M434.41 73.179v-6.815M431.002 69.772h6.815" />
      </g>
      <g>
        <path class="b" d="M420.78 28.883h27.259v27.259H420.78z" />
        <path class="e" d="M434.41 45.92v-6.815M431.002 42.513h6.815" />
      </g>
      <g>
        <path class="b" d="M420.78 1.623h27.259v27.259H420.78z" />
        <path class="e" d="M434.41 18.66v-6.815M431.002 15.253h6.815" />
      </g>
      <g>
        <path class="b" d="M420.78-25.636h27.259V1.623H420.78z" />
        <path class="e" d="M434.41-8.599v-6.815M431.002-12.006h6.815" />
      </g>
      <g>
        <path class="b" d="M448.04 546.813h27.259v27.259H448.04z" />
        <path class="e" d="M461.67 563.85v-6.815M458.262 560.443h6.815" />
      </g>
      <g>
        <path class="b" d="M448.04 519.553h27.259v27.259H448.04z" />
        <path class="e" d="M461.67 536.59v-6.815M458.262 533.183h6.815" />
      </g>
      <g>
        <path class="b" d="M448.04 492.294h27.259v27.259H448.04z" />
        <path class="e" d="M461.67 509.331v-6.815M458.262 505.924h6.815" />
      </g>
      <g>
        <path class="b" d="M448.04 465.034h27.259v27.259H448.04z" />
        <path class="e" d="M461.67 482.071v-6.815M458.262 478.664h6.815" />
      </g>
      <g>
        <path class="b" d="M448.04 437.775h27.259v27.259H448.04z" />
        <path class="e" d="M461.67 454.812v-6.815M458.262 451.405h6.815" />
      </g>
      <g>
        <path class="b" d="M448.04 410.515h27.259v27.259H448.04z" />
        <path class="e" d="M461.67 427.552v-6.815M458.262 424.145h6.815" />
      </g>
      <g>
        <path class="b" d="M448.04 383.256h27.259v27.259H448.04z" />
        <path class="e" d="M461.67 400.293v-6.815M458.262 396.886h6.815" />
      </g>
      <g>
        <path class="b" d="M448.04 355.997h27.259v27.259H448.04z" />
        <path class="e" d="M461.67 373.034v-6.815M458.262 369.627h6.815" />
      </g>
      <g>
        <path class="b" d="M448.04 328.737h27.259v27.259H448.04z" />
        <path class="e" d="M461.67 345.774v-6.815M458.262 342.367h6.815" />
      </g>
      <g>
        <path class="b" d="M448.04 301.478h27.259v27.259H448.04z" />
        <path class="e" d="M461.67 318.515V311.7M458.262 315.108h6.815" />
      </g>
      <g>
        <path class="b" d="M448.04 274.218h27.259v27.259H448.04z" />
        <path class="e" d="M461.67 291.255v-6.815M458.262 287.848h6.815" />
      </g>
      <g>
        <path class="b" d="M448.04 246.959h27.259v27.259H448.04z" />
        <path class="e" d="M461.67 263.996v-6.815M458.262 260.589h6.815" />
      </g>
      <g>
        <path class="b" d="M448.04 219.699h27.259v27.259H448.04z" />
        <path class="e" d="M461.67 236.736v-6.815M458.262 233.329h6.815" />
      </g>
      <g>
        <path class="b" d="M448.04 192.44h27.259v27.259H448.04z" />
        <path class="e" d="M461.67 209.477v-6.815M458.262 206.07h6.815" />
      </g>
      <g>
        <path class="b" d="M448.04 165.18h27.259v27.259H448.04z" />
        <path class="e" d="M461.67 182.217v-6.815M458.262 178.81h6.815" />
      </g>
      <g>
        <path class="b" d="M448.04 137.921h27.259v27.259H448.04z" />
        <path class="e" d="M461.67 154.958v-6.815M458.262 151.551h6.815" />
      </g>
      <g>
        <path class="b" d="M448.04 110.661h27.259v27.259H448.04z" />
        <path class="e" d="M461.67 127.698v-6.815M458.262 124.291h6.815" />
      </g>
      <g>
        <path class="b" d="M448.04 83.402h27.259v27.259H448.04z" />
        <path class="e" d="M461.67 100.439v-6.815M458.262 97.032h6.815" />
      </g>
      <g>
        <path class="b" d="M448.04 56.142h27.259v27.259H448.04z" />
        <path class="e" d="M461.67 73.179v-6.815M458.262 69.772h6.815" />
      </g>
      <g>
        <path class="b" d="M448.04 28.883h27.259v27.259H448.04z" />
        <path class="e" d="M461.67 45.92v-6.815M458.262 42.513h6.815" />
      </g>
      <g>
        <path class="b" d="M448.04 1.623h27.259v27.259H448.04z" />
        <path class="e" d="M461.67 18.66v-6.815M458.262 15.253h6.815" />
      </g>
      <g>
        <path class="b" d="M448.04-25.636h27.259V1.623H448.04z" />
        <path class="e" d="M461.67-8.599v-6.815M458.262-12.006h6.815" />
      </g>
      <g>
        <path class="b" d="M475.299 546.813h27.259v27.259h-27.259z" />
        <path class="e" d="M488.929 563.85v-6.815M485.521 560.443h6.815" />
      </g>
      <g>
        <path class="b" d="M475.299 519.553h27.259v27.259h-27.259z" />
        <path class="e" d="M488.929 536.59v-6.815M485.521 533.183h6.815" />
      </g>
      <g>
        <path class="b" d="M475.299 492.294h27.259v27.259h-27.259z" />
        <path class="e" d="M488.929 509.331v-6.815M485.521 505.924h6.815" />
      </g>
      <g>
        <path class="b" d="M475.299 465.034h27.259v27.259h-27.259z" />
        <path class="e" d="M488.929 482.071v-6.815M485.521 478.664h6.815" />
      </g>
      <g>
        <path class="b" d="M475.299 437.775h27.259v27.259h-27.259z" />
        <path class="e" d="M488.929 454.812v-6.815M485.521 451.405h6.815" />
      </g>
      <g>
        <path class="b" d="M475.299 410.515h27.259v27.259h-27.259z" />
        <path class="e" d="M488.929 427.552v-6.815M485.521 424.145h6.815" />
      </g>
      <g>
        <path class="b" d="M475.299 383.256h27.259v27.259h-27.259z" />
        <path class="e" d="M488.929 400.293v-6.815M485.521 396.886h6.815" />
      </g>
      <g>
        <path class="b" d="M475.299 355.997h27.259v27.259h-27.259z" />
        <path class="e" d="M488.929 373.034v-6.815M485.521 369.627h6.815" />
      </g>
      <g>
        <path class="b" d="M475.299 328.737h27.259v27.259h-27.259z" />
        <path class="e" d="M488.929 345.774v-6.815M485.521 342.367h6.815" />
      </g>
      <g>
        <path class="b" d="M475.299 301.478h27.259v27.259h-27.259z" />
        <path class="e" d="M488.929 318.515V311.7M485.521 315.108h6.815" />
      </g>
      <g>
        <path class="b" d="M475.299 274.218h27.259v27.259h-27.259z" />
        <path class="e" d="M488.929 291.255v-6.815M485.521 287.848h6.815" />
      </g>
      <g>
        <path class="b" d="M475.299 246.959h27.259v27.259h-27.259z" />
        <path class="e" d="M488.929 263.996v-6.815M485.521 260.589h6.815" />
      </g>
      <g>
        <path class="b" d="M475.299 219.699h27.259v27.259h-27.259z" />
        <path class="e" d="M488.929 236.736v-6.815M485.521 233.329h6.815" />
      </g>
      <g>
        <path class="b" d="M475.299 192.44h27.259v27.259h-27.259z" />
        <path class="e" d="M488.929 209.477v-6.815M485.521 206.07h6.815" />
      </g>
      <g>
        <path class="b" d="M475.299 165.18h27.259v27.259h-27.259z" />
        <path class="e" d="M488.929 182.217v-6.815M485.521 178.81h6.815" />
      </g>
      <g>
        <path class="b" d="M475.299 137.921h27.259v27.259h-27.259z" />
        <path class="e" d="M488.929 154.958v-6.815M485.521 151.551h6.815" />
      </g>
      <g>
        <path class="b" d="M475.299 110.661h27.259v27.259h-27.259z" />
        <path class="e" d="M488.929 127.698v-6.815M485.521 124.291h6.815" />
      </g>
      <g>
        <path class="b" d="M475.299 83.402h27.259v27.259h-27.259z" />
        <path class="e" d="M488.929 100.439v-6.815M485.521 97.032h6.815" />
      </g>
      <g>
        <path class="b" d="M475.299 56.142h27.259v27.259h-27.259z" />
        <path class="e" d="M488.929 73.179v-6.815M485.521 69.772h6.815" />
      </g>
      <g>
        <path class="b" d="M475.299 28.883h27.259v27.259h-27.259z" />
        <path class="e" d="M488.929 45.92v-6.815M485.521 42.513h6.815" />
      </g>
      <g>
        <path class="b" d="M475.299 1.623h27.259v27.259h-27.259z" />
        <path class="e" d="M488.929 18.66v-6.815M485.521 15.253h6.815" />
      </g>
      <g>
        <path class="b" d="M475.299-25.636h27.259V1.623h-27.259z" />
        <path class="e" d="M488.929-8.599v-6.815M485.521-12.006h6.815" />
      </g>
      <g>
        <path class="b" d="M502.559 546.813h27.259v27.259h-27.259z" />
        <path class="e" d="M516.189 563.85v-6.815M512.781 560.443h6.815" />
      </g>
      <g>
        <path class="b" d="M502.559 519.553h27.259v27.259h-27.259z" />
        <path class="e" d="M516.189 536.59v-6.815M512.781 533.183h6.815" />
      </g>
      <g>
        <path class="b" d="M502.559 492.294h27.259v27.259h-27.259z" />
        <path class="e" d="M516.189 509.331v-6.815M512.781 505.924h6.815" />
      </g>
      <g>
        <path class="b" d="M502.559 465.034h27.259v27.259h-27.259z" />
        <path class="e" d="M516.189 482.071v-6.815M512.781 478.664h6.815" />
      </g>
      <g>
        <path class="b" d="M502.559 437.775h27.259v27.259h-27.259z" />
        <path class="e" d="M516.189 454.812v-6.815M512.781 451.405h6.815" />
      </g>
      <g>
        <path class="b" d="M502.559 410.515h27.259v27.259h-27.259z" />
        <path class="e" d="M516.189 427.552v-6.815M512.781 424.145h6.815" />
      </g>
      <g>
        <path class="b" d="M502.559 383.256h27.259v27.259h-27.259z" />
        <path class="e" d="M516.189 400.293v-6.815M512.781 396.886h6.815" />
      </g>
      <g>
        <path class="b" d="M502.559 355.997h27.259v27.259h-27.259z" />
        <path class="e" d="M516.189 373.034v-6.815M512.781 369.627h6.815" />
      </g>
      <g>
        <path class="b" d="M502.559 328.737h27.259v27.259h-27.259z" />
        <path class="e" d="M516.189 345.774v-6.815M512.781 342.367h6.815" />
      </g>
      <g>
        <path class="b" d="M502.559 301.478h27.259v27.259h-27.259z" />
        <path class="e" d="M516.189 318.515V311.7M512.781 315.108h6.815" />
      </g>
      <g>
        <path class="b" d="M502.559 274.218h27.259v27.259h-27.259z" />
        <path class="e" d="M516.189 291.255v-6.815M512.781 287.848h6.815" />
      </g>
      <g>
        <path class="b" d="M502.559 246.959h27.259v27.259h-27.259z" />
        <path class="e" d="M516.189 263.996v-6.815M512.781 260.589h6.815" />
      </g>
      <g>
        <path class="b" d="M502.559 219.699h27.259v27.259h-27.259z" />
        <path class="e" d="M516.189 236.736v-6.815M512.781 233.329h6.815" />
      </g>
      <g>
        <path class="b" d="M502.559 192.44h27.259v27.259h-27.259z" />
        <path class="e" d="M516.189 209.477v-6.815M512.781 206.07h6.815" />
      </g>
      <g>
        <path class="b" d="M502.559 165.18h27.259v27.259h-27.259z" />
        <path class="e" d="M516.189 182.217v-6.815M512.781 178.81h6.815" />
      </g>
      <g>
        <path class="b" d="M502.559 137.921h27.259v27.259h-27.259z" />
        <path class="e" d="M516.189 154.958v-6.815M512.781 151.551h6.815" />
      </g>
      <g>
        <path class="b" d="M502.559 110.661h27.259v27.259h-27.259z" />
        <path class="e" d="M516.189 127.698v-6.815M512.781 124.291h6.815" />
      </g>
      <g>
        <path class="b" d="M502.559 83.402h27.259v27.259h-27.259z" />
        <path class="e" d="M516.189 100.439v-6.815M512.781 97.032h6.815" />
      </g>
      <g>
        <path class="b" d="M502.559 56.142h27.259v27.259h-27.259z" />
        <path class="e" d="M516.189 73.179v-6.815M512.781 69.772h6.815" />
      </g>
      <g>
        <path class="b" d="M502.559 28.883h27.259v27.259h-27.259z" />
        <path class="e" d="M516.189 45.92v-6.815M512.781 42.513h6.815" />
      </g>
      <g>
        <path class="b" d="M502.559 1.623h27.259v27.259h-27.259z" />
        <path class="e" d="M516.189 18.66v-6.815M512.781 15.253h6.815" />
      </g>
      <g>
        <path class="b" d="M502.559-25.636h27.259V1.623h-27.259z" />
        <path class="e" d="M516.189-8.599v-6.815M512.781-12.006h6.815" />
      </g>
      <g>
        <path class="b" d="M529.818 546.813h27.259v27.259h-27.259z" />
        <path class="e" d="M543.448 563.85v-6.815M540.04 560.443h6.815" />
      </g>
      <g>
        <path class="b" d="M529.818 519.553h27.259v27.259h-27.259z" />
        <path class="e" d="M543.448 536.59v-6.815M540.04 533.183h6.815" />
      </g>
      <g>
        <path class="b" d="M529.818 492.294h27.259v27.259h-27.259z" />
        <path class="e" d="M543.448 509.331v-6.815M540.04 505.924h6.815" />
      </g>
      <g>
        <path class="b" d="M529.818 465.034h27.259v27.259h-27.259z" />
        <path class="e" d="M543.448 482.071v-6.815M540.04 478.664h6.815" />
      </g>
      <g>
        <path class="b" d="M529.818 437.775h27.259v27.259h-27.259z" />
        <path class="e" d="M543.448 454.812v-6.815M540.04 451.405h6.815" />
      </g>
      <g>
        <path class="b" d="M529.818 410.515h27.259v27.259h-27.259z" />
        <path class="e" d="M543.448 427.552v-6.815M540.04 424.145h6.815" />
      </g>
      <g>
        <path class="b" d="M529.818 383.256h27.259v27.259h-27.259z" />
        <path class="e" d="M543.448 400.293v-6.815M540.04 396.886h6.815" />
      </g>
      <g>
        <path class="b" d="M529.818 355.997h27.259v27.259h-27.259z" />
        <path class="e" d="M543.448 373.034v-6.815M540.04 369.627h6.815" />
      </g>
      <g>
        <path class="b" d="M529.818 328.737h27.259v27.259h-27.259z" />
        <path class="e" d="M543.448 345.774v-6.815M540.04 342.367h6.815" />
      </g>
      <g>
        <path class="b" d="M529.818 301.478h27.259v27.259h-27.259z" />
        <path class="e" d="M543.448 318.515V311.7M540.04 315.108h6.815" />
      </g>
      <g>
        <path class="b" d="M529.818 274.218h27.259v27.259h-27.259z" />
        <path class="e" d="M543.448 291.255v-6.815M540.04 287.848h6.815" />
      </g>
      <g>
        <path class="b" d="M529.818 246.959h27.259v27.259h-27.259z" />
        <path class="e" d="M543.448 263.996v-6.815M540.04 260.589h6.815" />
      </g>
      <g>
        <path class="b" d="M529.818 219.699h27.259v27.259h-27.259z" />
        <path class="e" d="M543.448 236.736v-6.815M540.04 233.329h6.815" />
      </g>
      <g>
        <path class="b" d="M529.818 192.44h27.259v27.259h-27.259z" />
        <path class="e" d="M543.448 209.477v-6.815M540.04 206.07h6.815" />
      </g>
      <g>
        <path class="b" d="M529.818 165.18h27.259v27.259h-27.259z" />
        <path class="e" d="M543.448 182.217v-6.815M540.04 178.81h6.815" />
      </g>
      <g>
        <path class="b" d="M529.818 137.921h27.259v27.259h-27.259z" />
        <path class="e" d="M543.448 154.958v-6.815M540.04 151.551h6.815" />
      </g>
      <g>
        <path class="b" d="M529.818 110.661h27.259v27.259h-27.259z" />
        <path class="e" d="M543.448 127.698v-6.815M540.04 124.291h6.815" />
      </g>
      <g>
        <path class="b" d="M529.818 83.402h27.259v27.259h-27.259z" />
        <path class="e" d="M543.448 100.439v-6.815M540.04 97.032h6.815" />
      </g>
      <g>
        <path class="b" d="M529.818 56.142h27.259v27.259h-27.259z" />
        <path class="e" d="M543.448 73.179v-6.815M540.04 69.772h6.815" />
      </g>
      <g>
        <path class="b" d="M529.818 28.883h27.259v27.259h-27.259z" />
        <path class="e" d="M543.448 45.92v-6.815M540.04 42.513h6.815" />
      </g>
      <g>
        <path class="b" d="M529.818 1.623h27.259v27.259h-27.259z" />
        <path class="e" d="M543.448 18.66v-6.815M540.04 15.253h6.815" />
      </g>
      <g>
        <path class="b" d="M529.818-25.636h27.259V1.623h-27.259z" />
        <path class="e" d="M543.448-8.599v-6.815M540.04-12.006h6.815" />
      </g>
      <g>
        <path class="b" d="M557.078 546.813h27.259v27.259h-27.259z" />
        <path class="e" d="M570.708 563.85v-6.815M567.3 560.443h6.815" />
      </g>
      <g>
        <path class="b" d="M557.078 519.553h27.259v27.259h-27.259z" />
        <path class="e" d="M570.708 536.59v-6.815M567.3 533.183h6.815" />
      </g>
      <g>
        <path class="b" d="M557.078 492.294h27.259v27.259h-27.259z" />
        <path class="e" d="M570.708 509.331v-6.815M567.3 505.924h6.815" />
      </g>
      <g>
        <path class="b" d="M557.078 465.034h27.259v27.259h-27.259z" />
        <path class="e" d="M570.708 482.071v-6.815M567.3 478.664h6.815" />
      </g>
      <g>
        <path class="b" d="M557.078 437.775h27.259v27.259h-27.259z" />
        <path class="e" d="M570.708 454.812v-6.815M567.3 451.405h6.815" />
      </g>
      <g>
        <path class="b" d="M557.078 410.515h27.259v27.259h-27.259z" />
        <path class="e" d="M570.708 427.552v-6.815M567.3 424.145h6.815" />
      </g>
      <g>
        <path class="b" d="M557.078 383.256h27.259v27.259h-27.259z" />
        <path class="e" d="M570.708 400.293v-6.815M567.3 396.886h6.815" />
      </g>
      <g>
        <path class="b" d="M557.078 355.997h27.259v27.259h-27.259z" />
        <path class="e" d="M570.708 373.034v-6.815M567.3 369.627h6.815" />
      </g>
      <g>
        <path class="b" d="M557.078 328.737h27.259v27.259h-27.259z" />
        <path class="e" d="M570.708 345.774v-6.815M567.3 342.367h6.815" />
      </g>
      <g>
        <path class="b" d="M557.078 301.478h27.259v27.259h-27.259z" />
        <path class="e" d="M570.708 318.515V311.7M567.3 315.108h6.815" />
      </g>
      <g>
        <path class="b" d="M557.078 274.218h27.259v27.259h-27.259z" />
        <path class="e" d="M570.708 291.255v-6.815M567.3 287.848h6.815" />
      </g>
      <g>
        <path class="b" d="M557.078 246.959h27.259v27.259h-27.259z" />
        <path class="e" d="M570.708 263.996v-6.815M567.3 260.589h6.815" />
      </g>
      <g>
        <path class="b" d="M557.078 219.699h27.259v27.259h-27.259z" />
        <path class="e" d="M570.708 236.736v-6.815M567.3 233.329h6.815" />
      </g>
      <g>
        <path class="b" d="M557.078 192.44h27.259v27.259h-27.259z" />
        <path class="e" d="M570.708 209.477v-6.815M567.3 206.07h6.815" />
      </g>
      <g>
        <path class="b" d="M557.078 165.18h27.259v27.259h-27.259z" />
        <path class="e" d="M570.708 182.217v-6.815M567.3 178.81h6.815" />
      </g>
      <g>
        <path class="b" d="M557.078 137.921h27.259v27.259h-27.259z" />
        <path class="e" d="M570.708 154.958v-6.815M567.3 151.551h6.815" />
      </g>
      <g>
        <path class="b" d="M557.078 110.661h27.259v27.259h-27.259z" />
        <path class="e" d="M570.708 127.698v-6.815M567.3 124.291h6.815" />
      </g>
      <g>
        <path class="b" d="M557.078 83.402h27.259v27.259h-27.259z" />
        <path class="e" d="M570.708 100.439v-6.815M567.3 97.032h6.815" />
      </g>
      <g>
        <path class="b" d="M557.078 56.142h27.259v27.259h-27.259z" />
        <path class="e" d="M570.708 73.179v-6.815M567.3 69.772h6.815" />
      </g>
      <g>
        <path class="b" d="M557.078 28.883h27.259v27.259h-27.259z" />
        <path class="e" d="M570.708 45.92v-6.815M567.3 42.513h6.815" />
      </g>
      <g>
        <path class="b" d="M557.078 1.623h27.259v27.259h-27.259z" />
        <path class="e" d="M570.708 18.66v-6.815M567.3 15.253h6.815" />
      </g>
      <g>
        <path class="b" d="M557.078-25.636h27.259V1.623h-27.259z" />
        <path class="e" d="M570.708-8.599v-6.815M567.3-12.006h6.815" />
      </g>
    </g>
    <path d="m1354.575 2439.722-515.28 297.544a20.338 20.338 0 0 1-30.518-17.632v-200.976a20.327 20.327 0 0 1 10.182-17.615l515.235-297.53a20.336 20.336 0 0 1 30.517 17.615v200.934a20.369 20.369 0 0 1-10.136 17.66Z" fill="#d5f6ff" />
    <path d="m879.661 2606.824 1442.014-832.708a56.92 56.92 0 0 1 85.4 49.374v562.4a56.9 56.9 0 0 1-28.5 49.3L936.698 3267.828a56.941 56.941 0 0 1-85.4-49.315v-562.277a56.943 56.943 0 0 1 28.363-49.412Z" fill="#30E3DF" />
    <path d="m2141.852 2365.978-695.583 401.641a18.317 18.317 0 0 1-27.463-15.863v-163.991a34.34 34.34 0 0 1 17.17-29.741l695.574-401.646a18.319 18.319 0 0 1 27.472 15.858v163.996a34.344 34.344 0 0 1-17.17 29.746Z" fill="#ffd749" />
  </g>
</svg>